<svg xmlns="http://www.w3.org/2000/svg" xmlns:xlink="http://www.w3.org/1999/xlink" fill="none" version="1.1" width="113" height="176" viewBox="0 0 113 176"><defs><filter id="master_svg0_113_0159" filterUnits="objectBoundingBox" color-interpolation-filters="sRGB" x="0" y="0" width="111" height="174"><feFlood flood-opacity="0" result="BackgroundImageFix"/><feBlend mode="normal" in="SourceGraphic" in2="BackgroundImageFix" result="shape"/><feGaussianBlur in="BackgroundImage" stdDeviation="5"/><feComposite in2="SourceAlpha" operator="in" result="effect1_foregroundBlur"/><feBlend mode="normal" in="SourceGraphic" in2="effect1_foregroundBlur" result="shape"/></filter></defs><g filter="url(#master_svg0_113_0159)"><path d="M23.116,21.016L31.9,21.016L44.044,48.136Q40.012,48.136,37.948,47.824Q35.884,47.512,34.684,46.504Q33.484,45.496,32.668,43.336L32.476,42.856L22.252,42.856L22.156,43.096Q21.436,45.112,20.26,46.192Q19.084,47.272,17.26,47.704Q15.436,48.136,12.508,48.136L23.116,21.016ZM30.46,37.672L27.148,29.224L24.124,37.672L30.46,37.672ZM48.172,42.088L65.116,42.76L65.356,39.592L48.028,32.584L48.028,21.064L54.508,21.064L72.076,21.064L71.788,27.496L54.988,26.536L55.276,29.752L72.172,35.416L72.172,48.184L47.884,48.184L48.172,42.088ZM84.748,26.488L76.012,26.488L76.012,21.016L100.492,21.016L100.492,26.488L91.18,26.488L91.564,48.184L84.364,48.184L84.748,26.488ZM38.692,91.544L34.468,91.544L34.468,86.744L38.548,86.744L38.548,81.608L46.66,81.608L46.66,86.504L52.852,86.504L52.852,91.736L46.564,91.736L46.564,101.336L52.18,101.336L52.18,106.28L38.98,106.28L38.692,91.544ZM56.212,86.696L78.532,86.696L78.532,106.088L56.212,106.088L56.212,86.696ZM70.996,100.232L70.996,92.168L63.7,92.36L63.7,100.424L70.996,100.232ZM3.172,137.064L28.852,137.064L28.852,143.784L11.14,142.968L11.14,157.944L29.812,157.416L29.812,164.136L3.172,164.136L3.172,137.064ZM33.412,144.696L55.732,144.696L55.732,164.088L33.412,164.088L33.412,144.696ZM48.196,158.232L48.196,150.168L40.9,150.36L40.9,158.424L48.196,158.232ZM59.092,145.176L75.076,144.888L74.884,133.368L83.332,133.368L82.852,164.184L75.364,164.184L75.364,163.128L59.092,164.184L59.092,145.176ZM75.22,157.464L75.22,150.648L66.628,150.456L66.628,157.848L75.22,157.464ZM87.172,164.088L86.692,144.696L109.588,145.272L109.588,156.984L94.084,156.984L94.084,159.048L110.068,158.52L110.068,163.752L87.172,164.136L87.172,164.088ZM102.868,149.544L93.892,149.544L93.892,152.28L102.676,152.616L102.868,149.544Z" fill="#FFA116" fill-opacity="1"/><path d="M32.5479,20.016L22.4334,20.016L11.0431,49.136L12.508,49.136Q15.5528,49.136,17.4905,48.6771Q19.5683,48.185,20.9364,46.9285Q22.1638,45.8013,22.938,43.856L31.7966,43.856Q32.689800000000005,46.1348,34.0408,47.2697Q35.4563,48.4587,37.7985,48.8128Q39.9369,49.136,44.044,49.136L45.5875,49.136L32.5479,20.016ZM32.476,42.856L32.668,43.336Q33.484,45.496,34.684,46.504Q35.884,47.512,37.948,47.824Q39.7208,48.092,42.9455,48.1298Q43.4753,48.136,44.044,48.136L43.5958,47.135L31.9,21.016L23.116,21.016L12.8999,47.134L12.508,48.136Q13.0682,48.136,13.588,48.1202Q15.785,48.0534,17.26,47.704Q19.084,47.272,20.26,46.192Q21.436,45.112,22.156,43.096L22.252,42.856L32.476,42.856ZM84.748,26.488L76.012,26.488L76.012,21.016L100.492,21.016L100.492,26.488L91.18,26.488L91.1977,27.488L91.5463,47.184L91.564,48.184L84.364,48.184L84.3817,47.184L84.7303,27.488L84.748,26.488ZM83.7301,27.488L75.012,27.488L75.012,20.016L101.492,20.016L101.492,27.488L92.1978,27.488L92.5818,49.184L83.3461,49.184L83.7301,27.488ZM64.1917,41.7226L48.2116,41.0888L47.22,41.0495L46.8356,49.184L73.172,49.184L73.172,34.6965L56.2137,29.0116L56.0873,27.6004L72.7417,28.5521L73.1218,20.064L47.028,20.064L47.028,33.2583L64.30369999999999,40.2451L64.1917,41.7226ZM65.116,42.76L48.172,42.088L47.9312,47.184L47.884,48.184L72.172,48.184L72.172,35.416L55.276,29.752L55.0782,27.5428L54.988,26.536L55.9972,26.5937L70.7896,27.4389L71.788,27.496L71.8327,26.4969L72.0312,22.064L72.076,21.064L48.028,21.064L48.028,32.584L65.356,39.592L65.116,42.76ZM30.068,36.672L30.46,37.672L24.124,37.672L24.482,36.672L26.6354,30.6561L27.148,29.224L27.7032,30.6402L30.068,36.672ZM28.9939,36.672L27.1906,32.0723L25.5441,36.672L28.9939,36.672ZM38.692,91.544L34.468,91.544L34.468,86.744L38.548,86.744L38.548,81.608L46.66,81.608L46.66,86.504L52.852,86.504L52.852,91.736L46.564,91.736L46.564,101.336L52.18,101.336L52.18,106.28L38.98,106.28L38.692,91.544ZM47.564,100.336L53.18,100.336L53.18,107.28L37.9994,107.28L37.7114,92.544L33.468,92.544L33.468,85.744L37.548,85.744L37.548,80.608L47.66,80.608L47.66,85.504L53.852,85.504L53.852,92.736L47.564,92.736L47.564,100.336ZM79.532,85.696L55.212,85.696L55.212,107.088L79.532,107.088L79.532,85.696ZM56.212,86.696L56.212,106.088L78.532,106.088L78.532,86.696L56.212,86.696ZM70.996,100.232L64.7,100.3977L63.7,100.424L63.7,92.36L69.996,92.1943L70.996,92.168L70.996,100.232ZM69.996,93.1947L64.7,93.334L64.7,99.3973L69.996,99.258L69.996,93.1947ZM74.0595,143.906L59.074,144.176L58.092,144.194L58.092,165.251L74.364,164.195L74.364,165.184L83.8365,165.184L84.3477,132.368L73.8672,132.368L74.0595,143.906ZM75.076,144.888L59.092,145.176L59.092,164.184L60.092,164.119L74.364,163.193L75.364,163.128L75.364,164.184L82.852,164.184L83.3164,134.368L83.332,133.368L74.884,133.368L74.9007,134.368L75.076,144.888ZM29.852,136.064L2.1719999999999997,136.064L2.1719999999999997,165.136L30.812,165.136L30.812,156.387L12.14,156.915L12.14,144.015L29.852,144.831L29.852,136.064ZM11.14,143.969L11.14,142.968L12.14,143.014L27.852,143.738L28.852,143.784L28.852,137.064L3.172,137.064L3.172,164.136L29.812,164.136L29.812,157.416L28.812,157.444L12.14,157.916L11.14,157.944L11.14,143.969ZM85.6663,143.67L86.172,164.1L86.172,165.153L111.068,164.735L111.068,157.486L110.588,157.502L110.588,144.297L85.6663,143.67ZM96.0054,157.984L95.084,157.984L95.084,158.014L96.0054,157.984ZM95.084,159.015L94.084,159.048L94.084,156.984L109.588,156.984L109.588,145.272L87.6929,144.721L86.692,144.696L86.7168,145.697L87.1695,163.987L87.172,164.088L87.172,164.136L88.172,164.119L110.068,163.752L110.068,158.52L109.068,158.553L95.084,159.015ZM56.732,143.696L32.412,143.696L32.412,165.088L56.732,165.088L56.732,143.696ZM33.412,144.696L33.412,164.088L55.732,164.088L55.732,144.696L33.412,144.696ZM102.868,149.544L93.892,149.544L93.892,152.28L102.676,152.616L102.806,150.544L102.868,149.544ZM101.804,150.544L101.739,151.579L94.892,151.318L94.892,150.544L101.804,150.544ZM48.196,158.232L48.196,150.168L47.196,150.194L40.9,150.36L40.9,158.424L41.9,158.398L48.196,158.232ZM47.196,157.258L47.196,151.195L41.9,151.334L41.9,157.397L47.196,157.258ZM75.22,157.464L75.22,150.648L67.628,150.478L66.628,150.456L66.628,157.848L67.628,157.803L75.22,157.464ZM74.22,156.508L74.22,151.626L67.628,151.479L67.628,156.802L74.22,156.508Z" fill-rule="evenodd" fill="#000000" fill-opacity="1"/></g></svg>