<svg xmlns="http://www.w3.org/2000/svg" xmlns:xlink="http://www.w3.org/1999/xlink" fill="none" version="1.1" width="145" height="206" viewBox="0 0 145 206"><g><g><path d="M43,48L103,48C105.7614,48,108,50.23858,108,53L108,55C108,57.76142,105.7614,60,103,60L43,60C40.23858,60,38,57.76142,38,55L38,53C38,50.23858,40.23858,48,43,48" fill="#000000" fill-opacity="1"/></g><g><g><rect x="5" y="5" width="135" height="43" rx="5" fill="#FFA116" fill-opacity="1"/><rect x="2.5" y="2.5" width="140" height="48" rx="7.5" fill-opacity="0" stroke-opacity="1" stroke="#000000" fill="none" stroke-width="5"/></g><g><ellipse cx="26.5" cy="26.5" rx="10.5" ry="10.5" fill="#000000" fill-opacity="1"/></g><g><ellipse cx="121.5" cy="26.5" rx="10.5" ry="10.5" fill="#000000" fill-opacity="1"/></g></g><g><rect x="51" y="52" width="44" height="154" rx="5" fill="#000000" fill-opacity="1"/></g><g><rect x="86" y="70" width="2" height="124" rx="1" fill="#EBEBEB" fill-opacity="1"/></g></g></svg>