<svg xmlns="http://www.w3.org/2000/svg" xmlns:xlink="http://www.w3.org/1999/xlink" fill="none" version="1.1" width="133" height="112" viewBox="0 0 133 112"><g><g><path d="M0,107C0,109.761,2.23858,112,5,112L128,112C130.761,112,133,109.761,133,107L133,5C133,2.23858,130.761,0,128,0L5,0C2.23858,0,0,2.23858,0,5L0,107Z" fill="#FFA116" fill-opacity="1"/><path d="M0,107C0,109.761,2.23858,112,5,112L128,112C130.761,112,133,109.761,133,107L133,5C133,2.23858,130.761,0,128,0L5,0C2.23858,0,0,2.23858,0,5L0,107ZM5,107L128,107L128,5L5,5L5,107Z" fill-rule="evenodd" fill="#000000" fill-opacity="1"/></g><g><rect x="115" y="11" width="7" height="88" rx="3.5" fill="#FFFFFF" fill-opacity="1"/></g><g><rect x="115" y="11" width="7" height="35" rx="3.5" fill="#000000" fill-opacity="1"/></g><g><rect x="11" y="16" width="97" height="6" rx="1" fill="#F0F0F0" fill-opacity="1"/></g><g><rect x="11" y="30" width="69" height="6" rx="1" fill="#F0F0F0" fill-opacity="1"/></g><g><rect x="11" y="61" width="87" height="6" rx="1" fill="#F0F0F0" fill-opacity="1"/></g><g><rect x="11" y="75" width="99" height="6" rx="1" fill="#F0F0F0" fill-opacity="1"/></g><g><rect x="11" y="88" width="89" height="6" rx="1" fill="#F0F0F0" fill-opacity="1"/></g></g></svg>