<?xml version="1.0" standalone="no"?><!DOCTYPE svg PUBLIC "-//W3C//DTD SVG 1.1//EN" "http://www.w3.org/Graphics/SVG/1.1/DTD/svg11.dtd"><svg t="1715654085763" class="icon" viewBox="0 0 1024 1024" version="1.1" xmlns="http://www.w3.org/2000/svg" p-id="1939" xmlns:xlink="http://www.w3.org/1999/xlink" width="200" height="200"><path d="M926.427429 28.525714l68.973714 69.046857c38.107429 38.253714 38.107429 100.059429 0 138.24l-172.763429 172.763429 138.24 138.24c38.034286 38.253714 38.034286 100.059429 0 138.24L650.24 995.474286c-38.253714 38.107429-100.059429 38.107429-138.24 0L28.525714 511.780571a97.938286 97.938286 0 0 1 0-138.24L339.236571 62.902857a97.865143 97.865143 0 0 1 138.24 0l138.24 138.24 172.617143-172.617143a97.865143 97.865143 0 0 1 138.24 0zM264.338286 261.851429L90.697143 435.492571a10.24 10.24 0 0 0-1.901714 11.702858l1.828571 2.56 68.169143 68.096 76.8-74.678858 68.973714 69.046858-76.8 74.678857 68.973714 68.973714 111.469715-109.275429 68.973714 69.046858L365.714286 724.918857l69.046857 69.046857 76.8-74.605714 69.046857 68.973714-76.8 74.678857 70.217143 70.217143a10.093714 10.093714 0 0 0 11.556571 1.974857l2.56-1.901714 173.933715-173.714286L264.338286 261.851429z m588.507428-173.056l-2.56 1.828571-234.642285 234.788571-200.265143-200.265142a10.093714 10.093714 0 0 0-11.556572-1.901715l-2.56 1.828572L326.363429 199.68l497.810285 497.810286 74.459429-74.459429a10.24 10.24 0 0 0 1.974857-11.702857l-1.828571-2.56L698.514286 408.502857l234.788571-234.569143a10.24 10.24 0 0 0 1.901714-11.702857l-1.828571-2.56-68.900571-68.973714a10.093714 10.093714 0 0 0-11.629715-1.901714z" fill="#999999" p-id="1940"></path></svg>